<svg width="38" height="38" viewBox="0 0 38 38" fill="none" xmlns="http://www.w3.org/2000/svg">
<path d="M19.1361 32.044C17.6206 32.044 16.3921 30.8155 16.3921 29.3V8.85997C16.3921 7.3445 17.6206 6.11597 19.1361 6.11597V6.11597C20.6516 6.11597 21.8801 7.3445 21.8801 8.85997V29.3C21.8801 30.8155 20.6516 32.044 19.1361 32.044V32.044ZM9.44811 21.74C7.99449 21.74 6.8161 20.5616 6.8161 19.108V19.108C6.8161 17.6544 7.99449 16.476 9.4481 16.476H28.7121C30.1657 16.476 31.3441 17.6544 31.3441 19.108V19.108C31.3441 20.5616 30.1657 21.74 28.7121 21.74H9.44811Z" stroke="#1E1E1E" stroke-width="1.56"/>
</svg>
